<svg width="28" height="27" viewBox="0 0 28 27" fill="none" xmlns="http://www.w3.org/2000/svg">
<path d="M5.25 23.5C4.76875 23.5 4.35677 23.3286 4.01406 22.9859C3.67135 22.6432 3.5 22.2313 3.5 21.75V9.5C3.5 7.55556 4.18056 5.90278 5.54167 4.54167C6.90278 3.18056 8.55556 2.5 10.5 2.5H17.5C19.4444 2.5 21.0972 3.18056 22.4583 4.54167C23.8194 5.90278 24.5 7.55556 24.5 9.5V21.75C24.5 22.2313 24.3286 22.6432 23.9859 22.9859C23.6432 23.3286 23.2313 23.5 22.75 23.5H5.25ZM5.25 21.75H22.75V9.5C22.75 8.04167 22.2396 6.80208 21.2188 5.78125C20.1979 4.76042 18.9583 4.25 17.5 4.25H10.5C9.04167 4.25 7.80208 4.76042 6.78125 5.78125C5.76042 6.80208 5.25 8.04167 5.25 9.5V21.75ZM10.4974 12.7083C9.93525 12.7083 9.45486 12.5082 9.05625 12.1078C8.65764 11.7075 8.45833 11.2262 8.45833 10.6641C8.45833 10.1019 8.6585 9.62153 9.05885 9.22292C9.45917 8.82431 9.94042 8.625 10.5026 8.625C11.0648 8.625 11.5451 8.82517 11.9438 9.22551C12.3424 9.62583 12.5417 10.1071 12.5417 10.6693C12.5417 11.2314 12.3415 11.7118 11.9412 12.1104C11.5408 12.509 11.0596 12.7083 10.4974 12.7083ZM17.4974 12.7083C16.9352 12.7083 16.4549 12.5082 16.0562 12.1078C15.6576 11.7075 15.4583 11.2262 15.4583 10.6641C15.4583 10.1019 15.6585 9.62153 16.0588 9.22292C16.4592 8.82431 16.9404 8.625 17.5026 8.625C18.0648 8.625 18.5451 8.82517 18.9438 9.22551C19.3424 9.62583 19.5417 10.1071 19.5417 10.6693C19.5417 11.2314 19.3415 11.7118 18.9412 12.1104C18.5408 12.509 18.0596 12.7083 17.4974 12.7083ZM8.45833 21.75V18.5417C8.45833 18.0604 8.62969 17.6484 8.9724 17.3057C9.3151 16.963 9.72708 16.7917 10.2083 16.7917H17.7917C18.2729 16.7917 18.6849 16.963 19.0276 17.3057C19.3703 17.6484 19.5417 18.0604 19.5417 18.5417V21.75H17.7917V18.5417H14.875V21.75H13.125V18.5417H10.2083V21.75H8.45833Z" />
</svg>
