<svg width="28" height="27" viewBox="0 0 28 27" fill="none" xmlns="http://www.w3.org/2000/svg">
<path d="M6.47516 19.5625C7.70016 18.707 8.91544 18.0507 10.121 17.5938C11.3266 17.1368 12.6196 16.9084 14.0002 16.9084C15.3807 16.9084 16.6786 17.1368 17.8939 17.5938C19.1092 18.0507 20.3293 18.707 21.5543 19.5625C22.4099 18.5125 23.0175 17.4528 23.3772 16.3834C23.737 15.3139 23.9168 14.1862 23.9168 13C23.9168 10.1806 22.9689 7.82296 21.0731 5.92712C19.1772 4.03129 16.8196 3.08337 14.0002 3.08337C11.1807 3.08337 8.82308 4.03129 6.92725 5.92712C5.03141 7.82296 4.0835 10.1806 4.0835 13C4.0835 14.1862 4.26822 15.3139 4.63766 16.3834C5.00711 17.4528 5.61961 18.5125 6.47516 19.5625ZM13.9947 13.875C12.8706 13.875 11.9245 13.4892 11.1564 12.7175C10.3884 11.9459 10.0043 10.9979 10.0043 9.87378C10.0043 8.74962 10.3902 7.80351 11.1618 7.03546C11.9335 6.2674 12.8814 5.88337 14.0056 5.88337C15.1297 5.88337 16.0759 6.26921 16.8439 7.04088C17.612 7.81255 17.996 8.76047 17.996 9.88463C17.996 11.0088 17.6102 11.9549 16.8385 12.723C16.0668 13.491 15.1189 13.875 13.9947 13.875ZM14.0138 24.6667C12.4103 24.6667 10.8988 24.3605 9.47933 23.748C8.05989 23.1355 6.8203 22.2993 5.76058 21.2396C4.70086 20.1799 3.86475 18.9426 3.25225 17.5277C2.63975 16.1128 2.3335 14.601 2.3335 12.9923C2.3335 11.3836 2.63975 9.87435 3.25225 8.46462C3.86475 7.0549 4.70086 5.82018 5.76058 4.76046C6.8203 3.70074 8.05761 2.86462 9.4725 2.25212C10.8874 1.63962 12.3992 1.33337 14.0079 1.33337C15.6166 1.33337 17.1259 1.63962 18.5356 2.25212C19.9453 2.86462 21.18 3.70074 22.2397 4.76046C23.2995 5.82018 24.1356 7.05521 24.7481 8.46556C25.3606 9.8759 25.6668 11.3828 25.6668 12.9864C25.6668 14.5899 25.3606 16.1014 24.7481 17.5209C24.1356 18.9403 23.2995 20.1799 22.2397 21.2396C21.18 22.2993 19.945 23.1355 18.5346 23.748C17.1243 24.3605 15.6174 24.6667 14.0138 24.6667ZM14.0002 22.9167C15.0696 22.9167 16.1147 22.7612 17.1356 22.45C18.1564 22.1389 19.1627 21.5945 20.1543 20.8167C19.1627 20.1167 18.1516 19.582 17.121 19.2125C16.0904 18.8431 15.0502 18.6584 14.0002 18.6584C12.9502 18.6584 11.9099 18.8431 10.8793 19.2125C9.84877 19.582 8.83766 20.1167 7.846 20.8167C8.83766 21.5945 9.84391 22.1389 10.8647 22.45C11.8856 22.7612 12.9307 22.9167 14.0002 22.9167ZM14.0002 12.125C14.6613 12.125 15.2009 11.916 15.6189 11.498C16.037 11.0799 16.246 10.5403 16.246 9.87921C16.246 9.2181 16.037 8.67851 15.6189 8.26046C15.2009 7.8424 14.6613 7.63337 14.0002 7.63337C13.3391 7.63337 12.7995 7.8424 12.3814 8.26046C11.9634 8.67851 11.7543 9.2181 11.7543 9.87921C11.7543 10.5403 11.9634 11.0799 12.3814 11.498C12.7995 11.916 13.3391 12.125 14.0002 12.125Z" />
</svg>
