<svg width="27" height="27" viewBox="0 0 27 27" fill="none" xmlns="http://www.w3.org/2000/svg">
<path d="M3.4375 24.6667C2.95417 24.6667 2.53125 24.4917 2.16875 24.1417C1.80625 23.7917 1.625 23.3833 1.625 22.9167V4.83333C1.625 4.36667 1.80625 3.95833 2.16875 3.60833C2.53125 3.25833 2.95417 3.08333 3.4375 3.08333H5.40104V1.33333H7.36458V3.08333H17.6354V1.33333H19.599V3.08333H21.5625C22.0458 3.08333 22.4688 3.25833 22.8312 3.60833C23.1937 3.95833 23.375 4.36667 23.375 4.83333V22.9167C23.375 23.3833 23.1937 23.7917 22.8312 24.1417C22.4688 24.4917 22.0458 24.6667 21.5625 24.6667H3.4375ZM3.4375 22.9167H21.5625V10.375H3.4375V22.9167ZM3.4375 8.625H21.5625V4.83333H3.4375V8.625ZM12.5 15.3333C12.1576 15.3333 11.8707 15.2215 11.6391 14.9979C11.4075 14.7743 11.2917 14.4972 11.2917 14.1667C11.2917 13.8361 11.4075 13.559 11.6391 13.3354C11.8707 13.1118 12.1576 13 12.5 13C12.8424 13 13.1293 13.1118 13.3609 13.3354C13.5925 13.559 13.7083 13.8361 13.7083 14.1667C13.7083 14.4972 13.5925 14.7743 13.3609 14.9979C13.1293 15.2215 12.8424 15.3333 12.5 15.3333ZM7.66667 15.3333C7.32431 15.3333 7.03733 15.2215 6.80573 14.9979C6.57413 14.7743 6.45833 14.4972 6.45833 14.1667C6.45833 13.8361 6.57413 13.559 6.80573 13.3354C7.03733 13.1118 7.32431 13 7.66667 13C8.00903 13 8.29601 13.1118 8.5276 13.3354C8.7592 13.559 8.875 13.8361 8.875 14.1667C8.875 14.4972 8.7592 14.7743 8.5276 14.9979C8.29601 15.2215 8.00903 15.3333 7.66667 15.3333ZM17.3333 15.3333C16.991 15.3333 16.704 15.2215 16.4724 14.9979C16.2408 14.7743 16.125 14.4972 16.125 14.1667C16.125 13.8361 16.2408 13.559 16.4724 13.3354C16.704 13.1118 16.991 13 17.3333 13C17.6757 13 17.9627 13.1118 18.1943 13.3354C18.4259 13.559 18.5417 13.8361 18.5417 14.1667C18.5417 14.4972 18.4259 14.7743 18.1943 14.9979C17.9627 15.2215 17.6757 15.3333 17.3333 15.3333ZM12.5 20C12.1576 20 11.8707 19.8882 11.6391 19.6646C11.4075 19.441 11.2917 19.1639 11.2917 18.8333C11.2917 18.5028 11.4075 18.2257 11.6391 18.0021C11.8707 17.7785 12.1576 17.6667 12.5 17.6667C12.8424 17.6667 13.1293 17.7785 13.3609 18.0021C13.5925 18.2257 13.7083 18.5028 13.7083 18.8333C13.7083 19.1639 13.5925 19.441 13.3609 19.6646C13.1293 19.8882 12.8424 20 12.5 20ZM7.66667 20C7.32431 20 7.03733 19.8882 6.80573 19.6646C6.57413 19.441 6.45833 19.1639 6.45833 18.8333C6.45833 18.5028 6.57413 18.2257 6.80573 18.0021C7.03733 17.7785 7.32431 17.6667 7.66667 17.6667C8.00903 17.6667 8.29601 17.7785 8.5276 18.0021C8.7592 18.2257 8.875 18.5028 8.875 18.8333C8.875 19.1639 8.7592 19.441 8.5276 19.6646C8.29601 19.8882 8.00903 20 7.66667 20ZM17.3333 20C16.991 20 16.704 19.8882 16.4724 19.6646C16.2408 19.441 16.125 19.1639 16.125 18.8333C16.125 18.5028 16.2408 18.2257 16.4724 18.0021C16.704 17.7785 16.991 17.6667 17.3333 17.6667C17.6757 17.6667 17.9627 17.7785 18.1943 18.0021C18.4259 18.2257 18.5417 18.5028 18.5417 18.8333C18.5417 19.1639 18.4259 19.441 18.1943 19.6646C17.9627 19.8882 17.6757 20 17.3333 20Z"/>
</svg>
