<svg width="28" height="27" viewBox="0 0 28 27" fill="none" xmlns="http://www.w3.org/2000/svg">
<path d="M5.25 23.5C4.76875 23.5 4.35677 23.3286 4.01406 22.9859C3.67135 22.6432 3.5 22.2312 3.5 21.75V4.24996C3.5 3.76871 3.67135 3.35673 4.01406 3.01402C4.35677 2.67131 4.76875 2.49996 5.25 2.49996H11.2292C11.3264 1.8194 11.6375 1.26038 12.1625 0.822876C12.6875 0.385376 13.3 0.166626 14 0.166626C14.7 0.166626 15.3125 0.385376 15.8375 0.822876C16.3625 1.26038 16.6736 1.8194 16.7708 2.49996H22.75C23.2313 2.49996 23.6432 2.67131 23.9859 3.01402C24.3286 3.35673 24.5 3.76871 24.5 4.24996V21.75C24.5 22.2312 24.3286 22.6432 23.9859 22.9859C23.6432 23.3286 23.2313 23.5 22.75 23.5H5.25ZM5.25 21.75H22.75V4.24996H5.25V21.75ZM8.16667 18.8333H16.1292V17.0833H8.16667V18.8333ZM8.16667 13.875H19.8333V12.125H8.16667V13.875ZM8.16667 8.91663H19.8333V7.16663H8.16667V8.91663ZM14 3.75413C14.2722 3.75413 14.5104 3.65204 14.7146 3.44788C14.9187 3.24371 15.0208 3.00551 15.0208 2.73329C15.0208 2.46107 14.9187 2.22288 14.7146 2.01871C14.5104 1.81454 14.2722 1.71246 14 1.71246C13.7278 1.71246 13.4896 1.81454 13.2854 2.01871C13.0813 2.22288 12.9792 2.46107 12.9792 2.73329C12.9792 3.00551 13.0813 3.24371 13.2854 3.44788C13.4896 3.65204 13.7278 3.75413 14 3.75413Z"/>
</svg>
