<svg width="29" height="29" viewBox="0 0 29 29" fill="none" xmlns="http://www.w3.org/2000/svg">
<g clip-path="url(#clip0_174_3713)">
<path d="M23.1275 14.7358C23.1758 14.3733 23.2 13.9988 23.2 13.6C23.2 13.2133 23.1758 12.8267 23.1154 12.4642L25.5683 10.555C25.7858 10.3858 25.8462 10.0596 25.7133 9.81792L23.3933 5.80625C23.2483 5.54042 22.9462 5.45583 22.6804 5.54042L19.7925 6.70042C19.1883 6.24125 18.5479 5.85458 17.835 5.56458L17.4 2.49542C17.3516 2.20542 17.11 2 16.82 2H12.18C11.89 2 11.6604 2.20542 11.6121 2.49542L11.1771 5.56458C10.4641 5.85458 9.81164 6.25333 9.21955 6.70042L6.33164 5.54042C6.0658 5.44375 5.76372 5.54042 5.61872 5.80625L3.3108 9.81792C3.1658 10.0717 3.21414 10.3858 3.4558 10.555L5.90872 12.4642C5.8483 12.8267 5.79997 13.2254 5.79997 13.6C5.79997 13.9746 5.82414 14.3733 5.88455 14.7358L3.43164 16.645C3.21414 16.8142 3.15372 17.1404 3.28664 17.3821L5.60664 21.3938C5.75164 21.6596 6.05372 21.7442 6.31955 21.6596L9.20747 20.4996C9.81164 20.9587 10.4521 21.3454 11.165 21.6354L11.6 24.7046C11.6604 24.9946 11.89 25.2 12.18 25.2H16.82C17.11 25.2 17.3516 24.9946 17.3879 24.7046L17.8229 21.6354C18.5358 21.3454 19.1883 20.9587 19.7804 20.4996L22.6683 21.6596C22.9341 21.7563 23.2362 21.6596 23.3812 21.3938L25.7012 17.3821C25.8462 17.1163 25.7858 16.8142 25.5562 16.645L23.1275 14.7358ZM14.5 17.95C12.1075 17.95 10.15 15.9925 10.15 13.6C10.15 11.2075 12.1075 9.25 14.5 9.25C16.8925 9.25 18.85 11.2075 18.85 13.6C18.85 15.9925 16.8925 17.95 14.5 17.95Z"/>
</g>
<defs>
<clipPath id="clip0_174_3713">
<rect width="29" height="29" fill="white"/>
</clipPath>
</defs>
</svg>
